#!OML:ASF I:\Actors\actors\Patient Classification 2\Patient 1\Session 1\actor1.ASF
:FULLY-SPECIFIED
:DEGREES
579
root -1.21191 18.0722 6.14761 -0.749947 -4.58131 -4.46006
lowerback 3.7981 1.05726 2.06878
upperback -0.400077 1.52344 0.705106
thorax -2.50558 0.735709 -0.524743
lowerneck -13.5207 -0.721564 3.98808
upperneck 18.9468 -2.218 1.52844
head 8.08694 -0.61433 -0.39398
rclavicle -1.36051e-014 -2.34566e-014
rhumerus -56.0167 -11.0036 -79.3688
rradius 44.6199
rwrist 1.82657
rhand -19.6417 -33.7569
rfingers 7.12502
rthumb 6.68574 -63.6314
lclavicle -1.36051e-014 -2.34566e-014
lhumerus -39.6557 -0.945182 91.5917
lradius 44.4362
lwrist 8.71627
lhand -8.90166 -18.7909
lfingers 7.12502
lthumb 17.0411 10.4816
rfemur 11.2671 3.518 21.1975
rtibia -1.11319e-014
rfoot -18.5396 -10.286
rtoes 5.85119
lfemur 20.7494 -9.97267 -13.9407
ltibia -17.9063
lfoot -8.77543 25.5103
ltoes -2.77185
580
root -1.20366 18.0731 6.15018 -0.703661 -4.80235 -4.41434
lowerback 3.77493 1.06642 2.00882
upperback -0.407466 1.53249 0.709819
thorax -2.50161 0.741085 -0.486473
lowerneck -13.6336 -0.641517 4.03708
upperneck 19.1524 -2.11193 1.43415
head 8.1757 -0.564491 -0.423526
rclavicle 8.17735e-015 3.97569e-016
rhumerus -55.7354 -10.84 -79.267
rradius 43.1343
rwrist 3.04859
rhand -19.4904 -33.5566
rfingers 7.12502
rthumb 6.83173 -63.4264
lclavicle 8.17735e-015 3.97569e-016
lhumerus -39.4033 -0.24575 91.3029
lradius 43.0732
lwrist 6.41646
lhand -8.63256 -19.6243
lfingers 7.12502
lthumb 17.3001 9.62572
rfemur 11.1965 3.74662 21.1298
rtibia -3.18055e-014
rfoot -18.5423 -10.3329
rtoes 5.69997
lfemur 20.6994 -9.88912 -14.0384
ltibia -17.7978
lfoot -8.87807 25.6133
ltoes -2.87757
581
root -1.19495 18.074 6.15367 -0.656555 -5.02585 -4.4148
lowerback 3.74942 1.08313 2.01749
upperback -0.441271 1.55528 0.717043
thorax -2.52154 0.751998 -0.485074
lowerneck -13.6833 -0.566925 4.13235
upperneck 19.3556 -2.00402 1.26542
head 8.25118 -0.518663 -0.48491
rclavicle -9.76297e-015 -1.98785e-014
rhumerus -55.6719 -10.6363 -79.1923
rradius 42.1171
rwrist 4.11828
rhand -19.1667 -33.6225
rfingers 7.12502
rthumb 7.14425 -63.4819
lclavicle -9.76297e-015 -1.98785e-014
lhumerus -39.176 0.482911 90.9757
lradius 41.66
lwrist 3.98792
lhand -8.32446 -20.5932
lfingers 7.12502
lthumb 17.5966 8.63052
rfemur 11.1358 3.97619 21.1107
rtibia -3.18055e-015
rfoot -18.5612 -10.3522
rtoes 5.76468
lfemur 20.6699 -9.85197 -14.0929
ltibia -17.6991
lfoot -9.07147 25.7437
ltoes -2.53997
582
root -1.18373 18.0744 6.15804 -0.607841 -5.25209 -4.40419
lowerback 3.68695 1.11258 2.06498
upperback -0.491728 1.59605 0.721378
thorax -2.53632 0.771255 -0.508753
lowerneck -13.5747 -0.529164 4.18817
upperneck 19.4869 -1.93341 1.12869
head 8.27428 -0.492948 -0.532062
rclavicle 1.98008e-015 -7.55382e-015
rhumerus -55.8116 -10.3366 -79.17
rradius 41.6189
rwrist 4.91351
rhand -19.0345 -33.6043
rfingers 7.12502
rthumb 7.27181 -63.4594
lclavicle 1.98008e-015 -7.55382e-015
lhumerus -39.0598 1.20458 90.6486
lradius 40.2891
lwrist 1.65553
lhand -8.03171 -21.9052
lfingers 7.12502
lthumb 17.8783 7.29304
rfemur 11.0703 4.21096 21.0706
rtibia -3.18055e-015
rfoot -18.5604 -10.3925
rtoes 5.85799
lfemur 20.6518 -9.86163 -14.1799
ltibia -17.6079
lfoot -9.33085 25.9282
ltoes -2.10628
583
root -1.17316 18.0736 6.16243 -0.582356 -5.41948 -4.36039
lowerback 3.64895 1.12318 2.05191
upperback -0.520489 1.60934 0.731697
thorax -2.54491 0.777899 -0.491111
lowerneck -13.5148 -0.506357 4.19458
upperneck 19.5818 -1.8909 1.07185
head 8.2951 -0.476536 -0.547597
rclavicle -2.02885e-014 1.03368e-014
rhumerus -55.9907 -9.98802 -79.2193
rradius 41.5095
rwrist 5.43503
rhand -19.0935 -33.378
rfingers 7.12502
rthumb 7.21486 -63.235
lclavicle -2.02885e-014 1.03368e-014
lhumerus -38.9457 1.94697 90.2798
lradius 38.8386
lwrist -0.202673
lhand -7.77369 -23.9587
lfingers 7.12502
lthumb 18.1266 5.21664
rfemur 11.0311 4.38707 20.9962
rtibia 1.27222e-014
rfoot -18.5105 -10.4602
rtoes 5.60856
lfemur 20.6358 -9.84078 -14.2889
ltibia -17.5231
lfoot -9.50916 26.0328
ltoes -1.86934
584
root -1.16453 18.0732 6.16576 -0.557932 -5.54377 -4.31504
lowerback 3.6492 1.10791 2.00405
upperback -0.549078 1.58765 0.743104
thorax -2.57657 0.767404 -0.451783
lowerneck -13.4513 -0.446915 4.30551
upperneck 19.5583 -1.78905 0.883768
head 8.274 -0.440332 -0.617173
rclavicle -2.06767e-014 -6.36111e-015
rhumerus -56.1788 -9.67388 -79.3004
rradius 41.6573
rwrist 5.75827
rhand -19.0168 -33.0587
rfingers 7.12502
rthumb 7.28895 -62.9131
lclavicle -2.06767e-014 -6.36111e-015
lhumerus -38.9279 2.36762 90.1321
lradius 38.3658
lwrist -1.97118
lhand -7.51153 -23.4095
lfingers 7.12502
lthumb 18.3788 5.74231
rfemur 10.9982 4.51804 20.9272
rtibia 0
rfoot -18.4843 -10.5333
rtoes 5.26059
lfemur 20.6173 -9.85103 -14.387
ltibia -17.4481
lfoot -9.69389 26.0862
ltoes -1.37787
585
root -1.1571 18.074 6.16878 -0.530347 -5.66485 -4.26582
lowerback 3.65145 1.09319 1.96041
upperback -0.58061 1.56665 0.741514
thorax -2.61184 0.757069 -0.428255
lowerneck -13.3597 -0.387812 4.47534
upperneck 19.4663 -1.68137 0.62124
head 8.22391 -0.406107 -0.720183
rclavicle 1.03803e-014 -1.15295e-014
rhumerus -56.383 -9.35851 -79.4428
rradius 41.9984
rwrist 5.84381
rhand -18.8389 -32.7011
rfingers 7.12502
rthumb 7.46067 -62.5495
lclavicle 1.03803e-014 -1.15295e-014
lhumerus -39.0274 2.85611 89.8996
lradius 37.9254
lwrist -3.52597
lhand -7.50905 -23.7729
lfingers 7.12502
lthumb 18.3812 5.37866
rfemur 10.9597 4.64562 20.8548
rtibia -2.54444e-014
rfoot -18.5228 -10.5709
rtoes 5.293
lfemur 20.6094 -9.91552 -14.4989
ltibia -17.38
lfoot -9.88529 26.188
ltoes -1.01198
586
root -1.15077 18.0749 6.1722 -0.517951 -5.76791 -4.23342
lowerback 3.65693 1.08202 1.95156
upperback -0.596611 1.55133 0.723167
thorax -2.63143 0.74916 -0.441584
lowerneck -13.3316 -0.352331 4.5618
upperneck 19.43 -1.62889 0.526167
head 8.20603 -0.385532 -0.760154
rclavicle 1.16879e-014 4.37326e-015
rhumerus -56.549 -9.01707 -79.6933
rradius 42.4914
rwrist 5.63437
rhand -18.6866 -32.4947
rfingers 7.12502
rthumb 7.60765 -62.3379
lclavicle 1.16879e-014 4.37326e-015
lhumerus -39.2073 3.34459 89.5661
lradius 37.5268
lwrist -4.98728
lhand -6.81222 -23.7473
lfingers 7.12502
lthumb 19.0514 5.33965
rfemur 10.9383 4.75437 20.8017
rtibia 4.77083e-015
rfoot -18.5425 -10.5784
rtoes 5.48175
lfemur 20.596 -9.86874 -14.5667
ltibia -17.3108
lfoot -9.96331 26.2176
ltoes -1.07778
587
root -1.14397 18.0754 6.17518 -0.516378 -5.87062 -4.1901
lowerback 3.68198 1.08383 1.96041
upperback -0.611343 1.55399 0.681129
thorax -2.65922 0.74969 -0.490578
lowerneck -13.3332 -0.327228 4.58363
upperneck 19.4378 -1.61138 0.58135
head 8.21011 -0.369933 -0.74353
rclavicle -6.65618e-015 -7.95139e-015
rhumerus -56.6496 -8.80632 -79.8994
rradius 43.0009
rwrist 5.39181
rhand -18.4796 -32.2865
rfingers 7.12502
rthumb 7.80742 -62.1223
lclavicle -6.65618e-015 -7.95139e-015
lhumerus -39.4361 3.6494 89.2947
lradius 37.2837
lwrist -5.91938
lhand -6.18525 -23.9416
lfingers 7.12502
lthumb 19.6543 5.08483
rfemur 10.9256 4.86398 20.7333
rtibia 1.27222e-014
rfoot -18.5479 -10.5856
rtoes 5.56012
lfemur 20.5789 -9.72089 -14.631
ltibia -17.2419
lfoot -9.97846 26.1763
ltoes -1.22014
588
root -1.13726 18.075 6.17774 -0.520364 -5.99752 -4.10861
lowerback 3.70408 1.09672 1.92503
upperback -0.619515 1.56904 0.634905
thorax -2.67934 0.757152 -0.519707
lowerneck -13.3446 -0.287289 4.6187
upperneck 19.4413 -1.5735 0.621482
head 8.21466 -0.345264 -0.731923
rclavicle -4.59379e-015 1.19271e-015
rhumerus -56.6686 -8.67987 -80.0177
rradius 43.4377
rwrist 5.27098
rhand -18.2216 -31.9212
rfingers 7.12502
rthumb 8.05649 -61.7477
lclavicle -4.59379e-015 1.19271e-015
lhumerus -39.7311 3.77921 89.1438
lradius 37.2746
lwrist -6.20774
lhand -6.25822 -24.6082
lfingers 7.12502
lthumb 19.5841 4.42545
rfemur 10.9111 4.99914 20.6233
rtibia -3.49861e-014
rfoot -18.5632 -10.5933
rtoes 5.5749
lfemur 20.5756 -9.62746 -14.7569
ltibia -17.1724
lfoot -10.0051 26.1937
ltoes -1.37202
589
root -1.13213 18.0749 6.18097 -0.515508 -6.11728 -4.0334
lowerback 3.67311 1.10763 1.87855
upperback -0.608709 1.57951 0.598928
thorax -2.65076 0.763146 -0.530411
lowerneck -13.3412 -0.23608 4.6828
upperneck 19.3994 -1.50956 0.592363
head 8.2008 -0.314173 -0.745063
rclavicle 1.28278e-015 -1.51076e-014
rhumerus -56.5946 -8.51172 -80.1603
rradius 43.8369
rwrist 5.10695
rhand -18.0857 -31.5026
rfingers 7.12502
rthumb 8.18759 -61.324
lclavicle 1.28278e-015 -1.51076e-014
lhumerus -40.0477 3.81352 89.0372
lradius 37.3861
lwrist -6.1592
lhand -6.20979 -24.9668
lfingers 7.12502
lthumb 19.6307 4.06209
rfemur 10.8899 5.1257 20.5246
rtibia -2.22639e-014
rfoot -18.5402 -10.6099
rtoes 5.59104
lfemur 20.5647 -9.59223 -14.8781
ltibia -17.0994
lfoot -10.0933 26.2491
ltoes -1.34766
590
root -1.12759 18.0741 6.18464 -0.524912 -6.21126 -3.98658
lowerback 3.62569 1.12206 1.86854
upperback -0.581129 1.59595 0.57297
thorax -2.59486 0.771977 -0.550961
lowerneck -13.3176 -0.216758 4.7098
upperneck 19.356 -1.4766 0.546721
head 8.18199 -0.302271 -0.760838
rclavicle -1.90088e-015 -1.19271e-015
rhumerus -56.4538 -8.35345 -80.3163
rradius 44.234
rwrist 4.90952
rhand -18.063 -31.2026
rfingers 7.12502
rthumb 8.20951 -61.0231
lclavicle -1.90088e-015 -1.19271e-015
lhumerus -40.3051 3.86179 88.9457
lradius 37.4612
lwrist -6.08255
lhand -6.21465 -25.1724
lfingers 7.12502
lthumb 19.626 3.85694
rfemur 10.8943 5.22458 20.4608
rtibia -1.90833e-014
rfoot -18.5306 -10.6187
rtoes 5.70854
lfemur 20.5708 -9.57891 -14.9684
ltibia -17.0233
lfoot -10.2292 26.3087
ltoes -1.08836
591
root -1.12269 18.0724 6.18704 -0.554406 -6.30915 -3.96198
lowerback 3.62288 1.13389 1.86385
upperback -0.56054 1.61093 0.566728
thorax -2.5717 0.779796 -0.555255
lowerneck -13.2758 -0.210825 4.74052
upperneck 19.3323 -1.4555 0.468426
head 8.16576 -0.298681 -0.78942
rclavicle -6.21668e-015 7.95139e-016
rhumerus -56.2752 -8.19336 -80.446
rradius 44.6024
rwrist 4.72802
rhand -18.0232 -31.098
rfingers 7.12502
rthumb 8.24798 -60.917
lclavicle -6.21668e-015 7.95139e-016
lhumerus -40.5767 3.92977 88.8701
lradius 37.5961
lwrist -6.0335
lhand -5.81852 -24.6609
lfingers 7.12502
lthumb 20.0068 4.32909
rfemur 10.9186 5.32657 20.4232
rtibia 2.06736e-014
rfoot -18.5713 -10.594
rtoes 6.02846
lfemur 20.6044 -9.64992 -15.0532
ltibia -16.95
lfoot -10.3739 26.4342
ltoes -0.954898
592
root -1.11831 18.0726 6.18906 -0.539775 -6.41983 -3.95337
lowerback 3.57527 1.14711 1.83505
upperback -0.55348 1.62618 0.575446
thorax -2.53837 0.788238 -0.529853
lowerneck -13.2276 -0.203162 4.77342
upperneck 19.2963 -1.43552 0.407288
head 8.14453 -0.294002 -0.812655
rclavicle 1.57288e-014 -1.23246e-014
rhumerus -56.0274 -8.05338 -80.5561
rradius 44.8771
rwrist 4.5155
rhand -17.9444 -31.0099
rfingers 7.12502
rthumb 8.32402 -60.8259
lclavicle 1.57288e-014 -1.23246e-014
lhumerus -40.7668 4.01549 88.8057
lradius 37.6182
lwrist -5.85279
lhand -5.35289 -24.2529
lfingers 7.12502
lthumb 20.4543 4.68968
rfemur 10.893 5.44118 20.3998
rtibia -3.02153e-014
rfoot -18.6059 -10.5686
rtoes 6.30055
lfemur 20.5997 -9.8051 -15.1291
ltibia -16.8793
lfoot -10.5957 26.6453
ltoes -0.82638
593
root -1.11477 18.0743 6.19295 -0.484211 -6.5496 -3.95959
lowerback 3.43633 1.18989 1.80069
upperback -0.535325 1.67853 0.595988
thorax -2.44205 0.81597 -0.48888
lowerneck -13.2115 -0.212222 4.72271
upperneck 19.2611 -1.44179 0.439405
head 8.13022 -0.298267 -0.793979
rclavicle -1.62336e-014 0
rhumerus -55.736 -8.00904 -80.63
rradius 45.1018
rwrist 4.36305
rhand -18.4298 -30.6614
rfingers 7.12502
rthumb 7.85551 -60.4954
lclavicle -1.62336e-014 0
lhumerus -40.7846 4.20535 88.7291
lradius 37.411
lwrist -5.81422
lhand -5.82345 -25.0956
lfingers 7.12502
lthumb 20.0021 3.89488
rfemur 11.392 5.55891 20.4059
rtibia -1.10716
rfoot -18.122 -10.9277
rtoes 6.07231
lfemur 20.56 -9.91803 -15.1838
ltibia -16.8052
lfoot -10.8256 26.867
ltoes -0.572952
